<?xml version="1.0" encoding="UTF-8"?>
<svg version="1.1" viewBox="0 0 2048 2048" width="512" height="512" xmlns="http://www.w3.org/2000/svg">
<path transform="translate(402,910)" d="m0 0h1230l36 3 24 4 21 6 20 8 15 8 12 8 9 7 14 12 10 11 11 15 10 18 10 25 6 23 4 27 1 10v40l-4 38-5 28-7 28-8 21-9 19-7 12-8 12-8 11-12 14-11 12-4 2v2l-8 7-16 13-17 12-15 9-22 12-26 11-34 11-27 7-17 3-29 1-7 13-12 20-16 24-10 14-13 17-14 17-13 15-16 17-2 3h-2l-2 4-40 40-8 7-8 8-8 7-4 4h-2v2l-8 7-10 9-8 7-12 9-8 4-10 3-15 1h-640l-14-2-14-7-17-14-14-12-15-13-26-24-24-24-7-8-12-13-9-11-8-9-10-13-14-19-16-24-15-25-12-22-13-28-13-33-11-34-10-38-8-39-6-40-5-45-4-53-2-45-1-38v-84l3-12 6-11 9-10 11-7 11-4zm1201 102-1 114-2 43-3 41-4 34-6 38-6 27v2l10-2 18-6 24-11 15-9 14-10 11-9 10-9 10-10 13-17 8-13 7-17 4-15 4-22 3-26v-36l-3-21-4-15-6-13-6-10-8-9-11-7-12-5-14-3-19-2-36-2z"/>
<path transform="translate(214,1772)" d="m0 0h1528l2 1v52l-2 13-4 9-6 9-5 5-7 6-12 5-9 2h-1444l-13-4-9-6-8-7-6-9-4-8-2-8-1-11v-43z"/>
<path transform="translate(888,173)" d="m0 0h7l10 5 5 7v7l-4 8-9 10-12 10-13 9-12 11-11 16-6 10-6 15-4 24v16l4 24 7 20 11 21 10 16 10 17 16 27 12 22 8 16 9 19 8 21 8 28 5 28 1 9v32l-4 27-6 23-8 22-14 29-11 18-8 12-8 11-13 17-9 10-7 8-14 15-12 9-13 5h-12l-7-3-6-7-1-2 1-9 10-18 12-21 12-24 11-27 8-28 4-23 1-13v-15l-3-25-5-23-7-23-11-28-18-38-17-35-13-30-7-22-5-26-1-10v-30l3-24 5-21 7-20 11-23 10-16 11-14 12-13 14-13 14-11 15-10 11-5z"/>
<path transform="translate(1161,338)" d="m0 0h8l7 3 5 5 3 6v11l-4 8-5 5-10 7-11 8-9 10-8 13-5 12-3 13v18l4 15 8 18 13 23 17 29 9 16 8 16 8 19 8 27 3 15 2 23-1 27-4 23-6 20-6 15-9 17-12 18-11 13-15 15-13 10-14 8-11 3h-12l-8-3-6-7v-8l5-10 13-18 9-15 8-16 6-18 3-16 1-9v-21l-3-23-6-24-8-22-10-23-22-44-6-16-5-19-3-20v-29l3-20 6-21 8-17 10-16 13-16 8-9 8-7 15-11 16-8z"/>
</svg>
