<svg xmlns="http://www.w3.org/2000/svg" width="512" height="512" viewBox="0 0 512 512" version="1.1"><path d="" stroke="none" fill="#080404" fill-rule="evenodd"/><path d="M 25.383 0.890 C 14.998 3.566, 5.706 11.859, 1.957 21.798 C -0.893 29.354, -0.455 41.295, 2.919 48 C 4.541 51.223, 34.018 81.362, 106.832 154.243 L 208.482 255.986 107.341 357.243 C 24.006 440.673, 5.712 459.468, 3.429 464 C -0.459 471.718, -1.087 483.134, 1.936 491.147 C 4.803 498.745, 10.690 505.189, 18.189 508.936 C 23.526 511.604, 25.376 512, 32.482 512 C 48.537 512, 38.023 521.216, 153.250 406.139 L 256 303.523 358.750 406.139 C 473.977 521.216, 463.463 512, 479.518 512 C 486.624 512, 488.474 511.604, 493.811 508.936 C 501.013 505.338, 507.176 498.798, 509.614 492.167 C 510.558 489.600, 511.706 487.072, 512.165 486.550 C 513.388 485.158, 513.230 470.740, 512 471.500 C 511.450 471.840, 511 471.402, 511 470.526 C 511 463.970, 506.884 459.585, 404.661 357.245 L 303.523 255.990 405.592 153.745 C 490.160 69.031, 507.965 50.728, 509.433 47 C 510.408 44.525, 511.609 41.719, 512.103 40.764 C 513.208 38.625, 513.305 24.694, 512.210 25.370 C 511.775 25.639, 510.648 23.687, 509.705 21.033 C 507.370 14.457, 500.456 7.049, 493.345 3.503 C 488.302 0.988, 486.334 0.582, 479 0.544 C 463.084 0.462, 471.747 -7.134, 357.248 107.284 L 255.995 208.463 154.748 107.280 C 63.593 16.183, 52.911 5.829, 47.594 3.404 C 41.293 0.530, 31.208 -0.611, 25.383 0.890 M 0.343 33.500 C 0.346 37.900, 0.522 39.576, 0.733 37.224 C 0.945 34.872, 0.942 31.272, 0.727 29.224 C 0.512 27.176, 0.339 29.100, 0.343 33.500 M 0.343 479.500 C 0.346 483.900, 0.522 485.576, 0.733 483.224 C 0.945 480.872, 0.942 477.272, 0.727 475.224 C 0.512 473.176, 0.339 475.100, 0.343 479.500" stroke="none" fill="#040404" fill-rule="evenodd"/></svg>